<?xml version="1.0" encoding="utf-8"?>
<!-- Generator: Adobe Illustrator 21.1.0, SVG Export Plug-In . SVG Version: 6.00 Build 0)  -->
<svg version="1.1" id="Layer_1" xmlns="http://www.w3.org/2000/svg" xmlns:xlink="http://www.w3.org/1999/xlink" x="0px" y="0px"
	 viewBox="0 0 510.9 425.9" style="enable-background:new 0 0 510.9 425.9;" xml:space="preserve">
<g>
	<path d="M155.1,230.9C155.1,230.9,155.1,230.9,155.1,230.9c-0.2,0.5-0.3,1-0.4,1.5c-0.2,0.5-0.3,1-0.5,1.5c-0.2,0.5-0.3,1-0.5,1.5
		c-0.2,0.5-0.4,0.9-0.5,1.4c-0.2,0.5-0.4,1.1-0.6,1.6c-0.2,0.4-0.4,0.8-0.6,1.2c-0.3,0.6-0.5,1.1-0.8,1.7c-0.2,0.4-0.4,0.7-0.6,1.1
		c-0.3,0.6-0.6,1.2-0.9,1.7c-0.2,0.3-0.4,0.7-0.6,1c-0.3,0.6-0.7,1.2-1.1,1.8c-0.2,0.3-0.4,0.6-0.6,0.9c-0.4,0.6-0.8,1.2-1.2,1.8
		c-0.2,0.3-0.4,0.6-0.6,0.9c-0.4,0.6-0.9,1.2-1.3,1.7c-0.2,0.3-0.5,0.6-0.7,0.9c-0.4,0.5-0.9,1.1-1.3,1.6c-0.3,0.3-0.6,0.7-0.9,1
		c-0.4,0.4-0.8,0.9-1.2,1.3c-0.4,0.4-0.8,0.8-1.1,1.2c-0.3,0.3-0.6,0.6-0.9,0.9c-0.5,0.5-1,0.9-1.5,1.4c-0.2,0.2-0.4,0.3-0.6,0.5
		c-3.6,3.2-7.6,6-11.9,8.4c-0.1,0.1-0.2,0.1-0.3,0.2c-0.5,0.3-1.1,0.5-1.6,0.8c-0.4,0.2-0.9,0.4-1.3,0.6c-0.4,0.2-0.7,0.3-1.1,0.5
		c-0.6,0.3-1.2,0.6-1.9,0.8c-0.2,0.1-0.5,0.2-0.7,0.3c-0.8,0.3-1.5,0.6-2.3,0.9c-0.1,0.1-0.3,0.1-0.4,0.2c-0.9,0.3-1.7,0.6-2.6,0.9
		c-0.1,0-0.2,0.1-0.3,0.1c-0.9,0.3-1.9,0.5-2.8,0.8c-0.1,0-0.2,0.1-0.3,0.1c-0.9,0.2-1.9,0.4-2.8,0.6c-0.2,0-0.3,0.1-0.5,0.1
		c-0.9,0.2-1.7,0.3-2.6,0.4c-0.3,0.1-0.6,0.1-0.9,0.1c-0.8,0.1-1.5,0.2-2.3,0.3c-0.3,0-0.6,0-0.9,0.1c-0.9,0.1-1.8,0.1-2.8,0.2
		c-0.4,0-0.9,0-1.3,0c-0.8,0-1.6,0-2.3,0c-0.5,0-1,0-1.5-0.1c-0.8,0-1.5-0.1-2.3-0.1c-0.4,0-0.9-0.1-1.3-0.1c-1-0.1-1.9-0.2-2.9-0.3
		c-11.4-1.6-21.8-6.2-30.5-13c-1.7-1.3-3.4-2.8-4.9-4.3c-0.8-0.7-1.5-1.5-2.3-2.3c-2.7-2.9-5.1-5.9-7.3-9.2c0,0,0,0,0,0
		c-0.7-1.1-1.4-2.2-2-3.4c0,0,0,0,0,0c-1.2-2.2-2.3-4.4-3.3-6.7c-3.7-9-5.4-18.7-4.9-28.3c0-0.5,0.1-0.9,0.1-1.3
		c0.1-0.8,0.1-1.6,0.2-2.5c0.1-0.5,0.1-1,0.2-1.5c0.1-0.9,0.2-1.7,0.4-2.5c0.1-0.4,0.1-0.8,0.2-1.2c0.2-1.1,0.5-2.3,0.8-3.4
		c0.1-0.3,0.2-0.5,0.2-0.8c0.3-1.2,0.7-2.3,1-3.5c0.1-0.2,0.1-0.3,0.2-0.5c0.4-1,0.8-2.1,1.2-3.1c0.1-0.2,0.2-0.5,0.3-0.7
		c0.4-1.1,0.9-2.1,1.4-3.2c0.2-0.3,0.3-0.6,0.5-0.9c0.5-1,1.1-2.1,1.6-3.1c0.1-0.2,0.3-0.5,0.4-0.7c0.6-1,1.2-2,1.9-3.1
		c0.1-0.2,0.3-0.4,0.4-0.5c0.7-1.1,1.5-2.1,2.3-3.1c0.1-0.2,0.3-0.3,0.4-0.5c0.6-0.7,1.1-1.4,1.7-2.1c0.2-0.2,0.4-0.5,0.6-0.7
		c0.4-0.5,0.8-0.9,1.3-1.4c0.3-0.3,0.5-0.6,0.8-0.8c0.5-0.5,1.1-1.1,1.6-1.6c0.4-0.4,0.7-0.7,1.1-1.1l0.8-0.7c0.8-0.7,1.5-1.3,2.3-2
		c0.2-0.1,0.3-0.3,0.5-0.4c0.5-0.4,0.9-0.7,1.4-1.1c0.2-0.2,0.4-0.3,0.7-0.5c0.8-0.5,1.5-1.1,2.3-1.6c0.3-0.2,0.6-0.4,0.9-0.6
		c0.4-0.3,0.8-0.5,1.2-0.8c0.4-0.3,0.9-0.5,1.3-0.8c0.3-0.2,0.7-0.4,1-0.6c0.7-0.4,1.4-0.8,2.2-1.1c0.2-0.1,0.5-0.2,0.7-0.3
		c0.8-0.4,1.6-0.8,2.4-1.1c0,0,0,0,0.1,0c0.9-0.4,1.9-0.8,2.8-1.1c0,0,0,0,0,0c4.8-1.8,9.7-3,14.8-3.6c0.1,0,0.2,0,0.3-0.1
		c0.9-0.1,1.8-0.2,2.6-0.3c0.1,0,0.2,0,0.3,0c0.9-0.1,1.8-0.1,2.7-0.1c0.3,0,0.7,0,1,0c0.5,0,1,0,1.5,0c0.7,0,1.5,0,2.2,0.1
		c0.3,0,0.7,0,1,0.1c0.7,0,1.4,0.1,2.2,0.2c0.3,0,0.7,0.1,1,0.1c0.7,0.1,1.4,0.2,2.1,0.3c0.4,0.1,0.8,0.1,1.1,0.2
		c0.6,0.1,1.3,0.2,1.9,0.3c0.4,0.1,0.8,0.2,1.2,0.2c0.6,0.1,1.2,0.3,1.8,0.4c0.4,0.1,0.9,0.2,1.3,0.3c0.5,0.2,1.1,0.3,1.6,0.5
		c0.5,0.1,1,0.3,1.4,0.4c0.5,0.2,1,0.3,1.5,0.5c0.5,0.2,1,0.3,1.5,0.5c0.5,0.2,0.9,0.4,1.4,0.5c0.5,0.2,1.1,0.4,1.6,0.6
		c0.4,0.2,0.8,0.4,1.2,0.5c0.6,0.3,1.1,0.5,1.7,0.8c0.4,0.2,0.7,0.4,1.1,0.6c0.6,0.3,1.2,0.6,1.7,0.9c0.3,0.2,0.6,0.4,1,0.6
		c0.6,0.3,1.2,0.7,1.8,1.1c0.3,0.2,0.6,0.4,0.9,0.6c0.6,0.4,1.2,0.8,1.8,1.2c0.3,0.2,0.6,0.4,0.8,0.6c0.6,0.4,1.2,0.8,1.7,1.3
		c0.3,0.2,0.6,0.5,0.9,0.7c0.5,0.4,1,0.8,1.5,1.3c0.3,0.3,0.7,0.6,1,0.9c0.4,0.4,0.8,0.7,1.2,1.1c0.4,0.4,0.8,0.8,1.2,1.2
		c0.3,0.3,0.6,0.6,0.9,0.9c0.5,0.5,1,1,1.4,1.5c0.2,0.2,0.4,0.4,0.6,0.6c0.5,0.6,1,1.2,1.5,1.8c0.1,0.2,0.2,0.3,0.4,0.5
		c0.5,0.7,1.1,1.3,1.6,2c0.1,0.1,0.2,0.2,0.3,0.4c0.5,0.7,1,1.4,1.5,2.2c0.1,0.1,0.2,0.3,0.3,0.4c0.5,0.7,0.9,1.4,1.4,2.1
		c0.1,0.2,0.3,0.5,0.4,0.7c0.4,0.6,0.8,1.3,1.1,1.9c0.2,0.4,0.4,0.7,0.6,1.1c0.3,0.5,0.5,1,0.8,1.6c0.3,0.5,0.5,1.1,0.8,1.6
		c0.2,0.4,0.3,0.8,0.5,1.1c0.3,0.7,0.6,1.4,0.8,2.1c0.1,0.2,0.2,0.5,0.3,0.7c0,0,0,0.1,0,0.1v-48.9c-0.6-0.5-1.2-1-1.8-1.5
		c-0.3-0.2-0.5-0.4-0.8-0.6c-0.2-0.2-0.4-0.3-0.6-0.5c-0.8-0.6-1.6-1.2-2.4-1.8c-0.4-0.3-0.9-0.6-1.3-0.9c-0.8-0.6-1.7-1.1-2.5-1.7
		c-0.5-0.3-0.9-0.6-1.4-0.9c-0.8-0.5-1.7-1-2.5-1.5c-0.5-0.3-1-0.6-1.5-0.9c-0.8-0.4-1.6-0.9-2.4-1.3c-0.6-0.3-1.1-0.6-1.7-0.9
		c-0.8-0.4-1.6-0.7-2.4-1.1c-0.6-0.3-1.2-0.6-1.8-0.8c-0.8-0.3-1.5-0.6-2.3-0.9c-0.7-0.3-1.3-0.5-2-0.8c-0.7-0.3-1.4-0.5-2.2-0.8
		c-0.7-0.2-1.5-0.5-2.2-0.7c-0.7-0.2-1.4-0.4-2.1-0.6c-0.8-0.2-1.6-0.5-2.4-0.7c-0.6-0.2-1.3-0.3-2-0.5c-0.8-0.2-1.7-0.4-2.5-0.6
		c-0.6-0.1-1.2-0.2-1.8-0.4c-0.9-0.2-1.8-0.3-2.7-0.5c-0.6-0.1-1.2-0.2-1.7-0.3c-1-0.1-1.9-0.3-2.9-0.4c-0.5-0.1-1.1-0.1-1.6-0.2
		c-1-0.1-2-0.2-3-0.2c-0.5,0-1.1-0.1-1.6-0.1c-1,0-2-0.1-3-0.1c-0.3,0-0.5,0-0.8,0c-0.3,0-0.7,0-1,0c-0.9,0-1.7,0-2.6,0.1
		c-0.7,0-1.5,0.1-2.2,0.1c-0.7,0.1-1.4,0.1-2.1,0.2c-0.9,0.1-1.8,0.2-2.7,0.3c-0.5,0.1-1,0.1-1.5,0.2c-1.1,0.1-2.1,0.3-3.1,0.5
		c-0.4,0.1-0.7,0.1-1.1,0.2c-1.2,0.2-2.3,0.4-3.5,0.7c-0.3,0.1-0.5,0.1-0.8,0.2c-1.2,0.3-2.4,0.6-3.6,0.9c-0.3,0.1-0.5,0.1-0.8,0.2
		c-1.2,0.3-2.3,0.7-3.5,1c-0.3,0.1-0.6,0.2-0.9,0.3c-1.1,0.4-2.1,0.7-3.2,1.1c-0.4,0.2-0.8,0.3-1.2,0.5c-0.9,0.4-1.8,0.7-2.7,1.1
		c-0.5,0.2-1.1,0.5-1.6,0.7c-0.7,0.3-1.5,0.7-2.2,1c-0.7,0.3-1.4,0.7-2.1,1c-0.5,0.3-1.1,0.6-1.6,0.9c-0.8,0.4-1.7,0.9-2.5,1.4
		c-0.4,0.2-0.7,0.4-1.1,0.6c-1,0.6-1.9,1.1-2.9,1.7c-0.2,0.1-0.4,0.3-0.6,0.4c-1.1,0.7-2.1,1.4-3.1,2.1c-0.1,0-0.1,0.1-0.2,0.1
		c-6,4.3-11.6,9.4-16.6,15.2c-0.8,0.9-1.6,1.8-2.3,2.8c-0.1,0.1-0.2,0.3-0.4,0.4c-0.1,0.2-0.2,0.3-0.4,0.5c-0.2,0.3-0.5,0.6-0.7,0.9
		c-0.4,0.6-0.8,1.1-1.2,1.7c-0.2,0.3-0.4,0.5-0.6,0.8c-0.8,1.1-1.6,2.3-2.3,3.5c0,0-0.1,0.1-0.1,0.1c-0.1,0.1-0.1,0.2-0.1,0.2
		c-0.7,1.1-1.3,2.2-2,3.3c-0.1,0.3-0.3,0.5-0.4,0.8c-0.6,1.1-1.3,2.3-1.9,3.5c-0.1,0.2-0.2,0.5-0.3,0.7c-0.5,1-1,2-1.4,3
		c-0.1,0.3-0.3,0.6-0.4,0.9c-0.5,1.1-1,2.3-1.4,3.4c-0.2,0.4-0.3,0.8-0.4,1.2c-0.3,0.8-0.6,1.6-0.9,2.4c-0.2,0.5-0.3,1-0.5,1.5
		c0,0,0,0.1-0.1,0.1c-0.2,0.5-0.3,1-0.5,1.6l-0.3,1c-0.1,0.2-0.1,0.3-0.1,0.5c-0.1,0.5-0.3,0.9-0.4,1.4c-0.2,0.9-0.5,1.7-0.7,2.5
		c-0.1,0.5-0.2,1-0.3,1.4c-0.2,0.9-0.4,1.8-0.6,2.8c-0.1,0.4-0.2,0.8-0.2,1.2c-0.2,1.3-0.4,2.5-0.6,3.8c0,0,0,0,0,0
		c0,0.3-0.1,0.6-0.1,0.9c-0.1,1-0.2,2-0.3,3c0,0.5-0.1,1-0.1,1.4c-0.1,0.9-0.1,1.7-0.2,2.6c0,0.4-0.1,0.9-0.1,1.3
		C0,210.5,0,211.7,0,212.9c0,2.9,0.1,5.9,0.4,8.8c0.3,3.1,0.7,6.1,1.3,9.2c0.4,2.1,0.9,4.2,1.5,6.3c0.6,2.3,1.3,4.7,2.2,7
		c2.6,7.3,6,14.2,10.4,20.8c0.3,0.4,0.6,0.9,0.9,1.3l0.6,0.9c2.7,3.7,5.6,7.3,8.9,10.7c1,1.1,2.1,2.1,3.2,3.2
		c0.1,0.1,0.3,0.3,0.4,0.4c0.5,0.4,0.9,0.9,1.4,1.3c0.5,0.4,0.9,0.8,1.4,1.2c0.4,0.3,0.7,0.6,1.1,0.9c0.6,0.5,1.2,1,1.9,1.5
		c0.1,0.1,0.2,0.1,0.2,0.2h0c15.9,12.4,35.8,19.8,57.5,19.8c10,0,19.7-1.6,28.7-4.5c0.1,0,0.1-0.1,0.2-0.1c1.4-0.5,2.8-1,4.2-1.5
		c0.3-0.1,0.6-0.3,1-0.4c1.1-0.4,2.2-0.9,3.3-1.4c0.5-0.2,1-0.5,1.5-0.7c0.9-0.4,1.7-0.8,2.6-1.2c0.7-0.3,1.3-0.7,2-1
		c0.7-0.3,1.3-0.7,2-1.1c0.8-0.4,1.6-0.9,2.3-1.3c0.5-0.3,1-0.6,1.5-0.9c0.9-0.5,1.7-1.1,2.6-1.7c0.4-0.2,0.7-0.5,1-0.7
		c1-0.7,1.9-1.3,2.9-2c0.1-0.1,0.2-0.2,0.3-0.3c3-2.3,6-4.8,8.8-7.5c0.4-0.4,0.9-0.9,1.3-1.3c0.5-0.6,1.1-1.1,1.6-1.7
		c0.6-0.6,1.2-1.3,1.8-2c0.4-0.5,0.8-1,1.3-1.5c0.7-0.8,1.4-1.6,2.1-2.5c0.2-0.2,0.4-0.5,0.6-0.7c0.2-0.2,0.3-0.4,0.5-0.6
		c0.5-0.6,1-1.3,1.4-1.9C162.2,256.8,157.4,244.2,155.1,230.9z"/>
	<path d="M353.2,212.9H324c0-4.4-0.4-8.6-1.3-12.7h29.6C352.9,204.4,353.2,208.6,353.2,212.9z"/>
	<path d="M353.2,297.5v128.4H324V263.4c1.2,2.2,2.5,4.4,3.9,6.6c1.5,2.4,3.1,4.6,4.7,6.7c1.5,1.9,3,3.9,4.6,5.7
		c2.3,2.6,4.7,5.2,7.3,7.6C347.3,292.7,350.2,295.2,353.2,297.5z"/>
	<path d="M195.5,0v128.4c-4.2,3.2-8.1,6.7-11.9,10.5c-6.9,7.1-12.7,15-17.3,23.6V0H195.5z"/>
	<path d="M195.5,0v128.4c-4.2,3.2-8.1,6.7-11.9,10.5c-6.9,7.1-12.7,15-17.3,23.6V0H195.5z"/>
	<path d="M29.2,0v128.5c-12,9.1-22,20.8-29.2,34.1V0H29.2z"/>
	<path d="M166.3,212.9c0,51.6,41.8,93.5,93.4,93.5c19,0,36.8-5.7,51.5-15.5v-39.6c-1.5,2-3.1,3.9-4.8,5.7
		c-11.7,12.4-28.3,20.1-46.7,20.1c-35.5,0-64.2-28.8-64.2-64.2c0-35.5,28.8-64.2,64.2-64.2c0.1,0,0.2,0,0.3,0
		c-1.8-9.6-2.7-19.2-3-29.1C206.7,121,166.3,162.2,166.3,212.9z"/>
	<path d="M416.2,277.2c-23.5-0.4-44-13.5-54.8-32.8c-3.2-5.7-5.6-11.9-6.9-18.5c-0.9-4.2-1.3-8.5-1.3-13c0-4.3-0.3-8.6-0.9-12.7
		c0-0.1,0-0.2,0-0.2c-0.6-4.7-1.6-9.2-2.9-13.6l-0.3-1.1c-0.2-0.5-0.3-1-0.5-1.6c-2.4-7.4-5.8-14.5-9.9-21c-1.3-2.1-2.7-4-4.1-6
		c-1.3-1.7-2.6-3.4-4.1-5c-2-2.3-4.2-4.6-6.4-6.7c-16.8-15.9-39.4-25.6-64.3-25.6c-0.9,0-1.8,0-2.8,0.1c0.4,9.9,1.2,19.6,3,29.1
		c23.9,0.1,44.8,13.3,55.8,32.8c3.2,5.7,5.6,11.9,6.9,18.5c0,0.1,0,0.2,0.1,0.2c0.8,4.1,1.3,8.4,1.3,12.7c0,4.4,0.3,8.7,0.9,13
		c0.6,4.6,1.6,9.2,2.9,13.6l0.3,1.1c0.2,0.5,0.3,1,0.5,1.6c2.4,7.4,5.8,14.5,9.9,21c1.3,2,2.7,4,4.2,6c1.3,1.7,2.6,3.4,4.1,5
		c2,2.3,4.2,4.6,6.4,6.7c16.4,15.6,38.5,25.2,62.8,25.6C415.3,296.7,416.2,286.8,416.2,277.2z"/>
	<path d="M510.9,212.9c0-51.6-41.8-93.5-93.5-93.5c-28.2,0-53.5,12.5-70.6,32.3c0,0,0,0,0,0c0.6,0.9,1.3,1.8,1.9,2.8
		c5.1,7.7,9.2,16.2,12.2,25.1c0.2,0.6,0.4,1.2,0.6,1.8c2.6-4.6,5.7-8.8,9.3-12.6c11.7-12.4,28.3-20.2,46.7-20.2
		c35.5,0,64.2,28.8,64.2,64.2c0,35.5-28.8,64.2-64.2,64.2c-0.4,0-0.8,0-1.2,0c0,9.6-0.9,19.5-0.2,29.2c0.5,0,0.9,0,1.4,0
		C469.1,306.4,510.9,264.6,510.9,212.9z"/>
</g>
</svg>
