<svg id="Layer_1" data-name="Layer 1" xmlns="http://www.w3.org/2000/svg" viewBox="0 0 510.93 425.87"><defs><style>.cls-1{fill:#fff;}</style></defs><title>Logo_white</title><path class="cls-1" d="M155.14,230.9s0,0,0,.06c-.13.47-.27.93-.41,1.4s-.34,1-.51,1.5-.34,1-.52,1.49-.37.92-.55,1.38-.42,1.06-.64,1.58-.38.83-.56,1.24c-.25.56-.51,1.11-.78,1.65-.18.37-.38.74-.56,1.11-.31.59-.6,1.16-.92,1.73l-.57,1q-.52.92-1.07,1.8c-.18.31-.38.6-.57.89-.38.61-.78,1.21-1.2,1.81l-.6.85c-.42.57-.85,1.16-1.3,1.73-.22.29-.46.59-.69.88-.43.55-.88,1.1-1.34,1.62l-.88,1c-.38.43-.78.85-1.17,1.27s-.75.81-1.15,1.2-.61.61-.92.9c-.48.47-1,.94-1.46,1.4l-.56.5a64.9,64.9,0,0,1-11.87,8.4l-.29.17-1.62.83c-.43.22-.85.45-1.3.65s-.73.33-1.09.5c-.62.28-1.25.57-1.88.84l-.73.28c-.78.31-1.54.61-2.33.89l-.45.15c-.87.31-1.74.6-2.64.87l-.29.08q-1.39.42-2.79.76l-.31.08c-.93.22-1.86.43-2.79.61l-.5.09c-.87.17-1.73.32-2.61.43-.28.05-.56.08-.85.11q-1.13.15-2.25.27l-.85.06c-.93.08-1.85.14-2.78.18l-1.27,0H92.38l-1.49-.05c-.78,0-1.54-.08-2.32-.13-.45,0-.9-.06-1.35-.11q-1.43-.13-2.86-.34a63.92,63.92,0,0,1-30.48-13A63.16,63.16,0,0,1,49,259.3c-.78-.74-1.53-1.49-2.25-2.27a65.33,65.33,0,0,1-7.26-9.24h0q-1.07-1.64-2-3.36s0,0,0,0a64.7,64.7,0,0,1-8.12-35.05c0-.46.06-.9.1-1.35.06-.82.13-1.64.23-2.46.05-.5.11-1,.19-1.48.11-.85.24-1.69.39-2.53.08-.39.14-.8.22-1.2.23-1.15.48-2.29.78-3.44.08-.27.15-.53.22-.8.32-1.16.66-2.33,1-3.48.06-.18.13-.34.18-.52.36-1,.75-2.09,1.17-3.12.1-.24.19-.5.29-.74.45-1.08.93-2.14,1.44-3.2l.46-.93c.52-1,1.07-2.06,1.64-3.07.14-.24.29-.48.43-.74.61-1,1.25-2,1.92-3.07.13-.18.25-.36.37-.53.73-1.06,1.48-2.09,2.27-3.11l.38-.51c.56-.71,1.13-1.4,1.72-2.09l.61-.69q.63-.71,1.26-1.38l.79-.84c.53-.55,1.07-1.07,1.62-1.59.37-.36.74-.71,1.12-1.06l.76-.69c.76-.68,1.54-1.32,2.33-2l.47-.38c.46-.36.92-.71,1.39-1.06l.66-.48c.75-.55,1.52-1.07,2.28-1.58l.9-.6,1.22-.75c.43-.27.88-.52,1.31-.78l1-.59c.71-.39,1.43-.76,2.15-1.13l.69-.33c.8-.38,1.59-.76,2.41-1.11l.06,0c.94-.41,1.88-.79,2.84-1.15l0,0a64.51,64.51,0,0,1,14.78-3.64l.34-.05c.88-.1,1.76-.19,2.65-.25l.32,0c.89-.06,1.8-.11,2.69-.14h1q.75,0,1.49,0c.73,0,1.45,0,2.16.05l1,.05c.73,0,1.44.09,2.16.15l1,.1c.7.08,1.39.17,2.08.27l1.12.15c.65.1,1.29.23,1.94.34.41.09.81.15,1.21.24l1.78.41c.45.11.89.2,1.32.32s1.1.31,1.63.47,1,.27,1.41.42,1,.33,1.5.51,1,.33,1.5.52.9.36,1.36.53,1.06.42,1.58.65l1.24.55,1.67.78,1.09.57c.59.29,1.16.6,1.74.92l1,.56q.92.52,1.8,1.07l.89.57c.61.38,1.21.79,1.81,1.2l.84.61c.59.42,1.17.84,1.74,1.29l.9.7L135,164c.34.31.7.6,1,.92s.8.73,1.2,1.08l1.25,1.18.85.88c.48.48,1,1,1.43,1.48l.57.65c.52.59,1,1.17,1.54,1.77l.36.46c.55.66,1.07,1.32,1.59,2l.27.37c.52.7,1,1.41,1.53,2.15.09.14.18.28.28.42.47.71.93,1.41,1.38,2.14.13.23.25.46.39.69.38.64.75,1.27,1.11,1.94.2.36.39.73.59,1.1.27.52.55,1,.8,1.58l.75,1.6c.17.38.34.75.51,1.13.29.69.57,1.38.84,2.08.09.24.19.48.28.73a.18.18,0,0,1,0,.08V141.47c-.61-.52-1.22-1-1.85-1.53-.25-.2-.5-.42-.76-.62s-.43-.32-.64-.47c-.8-.62-1.62-1.22-2.43-1.81-.45-.32-.88-.64-1.32-.94-.84-.59-1.68-1.13-2.53-1.69-.46-.29-.92-.6-1.39-.88-.83-.52-1.67-1-2.51-1.5-.51-.29-1-.59-1.52-.87q-1.22-.67-2.44-1.3c-.56-.29-1.12-.59-1.68-.85-.78-.38-1.57-.74-2.36-1.11-.61-.28-1.22-.56-1.85-.83s-1.5-.62-2.25-.92-1.35-.55-2-.8-1.44-.51-2.16-.76-1.45-.51-2.19-.74-1.39-.41-2.08-.61l-2.36-.67-2-.47c-.84-.2-1.69-.41-2.53-.59l-1.85-.36c-.92-.18-1.82-.34-2.72-.48l-1.73-.25-2.9-.37-1.63-.15c-1-.09-2-.17-3-.23l-1.62-.08c-1,0-2-.06-3-.08h-.79l-1,0c-.87,0-1.72,0-2.58.06l-2.22.1-2.08.15c-.9.08-1.81.17-2.7.27l-1.54.19c-1.06.14-2.1.29-3.15.46l-1.08.19c-1.16.2-2.32.43-3.45.67l-.83.19c-1.2.27-2.39.56-3.56.87l-.76.22q-1.76.48-3.48,1l-.92.29c-1.07.36-2.13.73-3.18,1.12l-1.21.46c-.92.36-1.83.73-2.74,1.11-.55.23-1.08.47-1.63.71-.74.33-1.46.66-2.19,1s-1.39.66-2.06,1-1.1.56-1.63.85c-.84.45-1.67.89-2.5,1.36l-1.08.65c-1,.56-1.91,1.15-2.85,1.74l-.61.39c-1.06.7-2.11,1.4-3.15,2.14l-.17.13a92.76,92.76,0,0,0-16.62,15.24c-.79.92-1.55,1.85-2.3,2.8l-.36.42c-.13.17-.24.34-.37.51l-.7.9c-.43.56-.84,1.13-1.25,1.71-.19.28-.39.55-.59.81-.8,1.13-1.58,2.28-2.32,3.45l-.06.1a1.48,1.48,0,0,0-.14.24c-.69,1.07-1.35,2.16-2,3.27l-.42.75c-.65,1.15-1.27,2.29-1.87,3.46-.11.23-.22.46-.33.67-.5,1-1,2-1.43,3l-.41.88c-.5,1.13-1,2.27-1.43,3.41-.15.39-.29.79-.45,1.18-.31.79-.6,1.59-.88,2.39-.17.5-.34,1-.5,1.48a.38.38,0,0,0-.05.13c-.17.52-.34,1-.5,1.57l-.33,1c-.05.17-.09.33-.13.5-.14.46-.25.92-.38,1.38-.24.85-.46,1.69-.66,2.55l-.34,1.43Q2,193.58,1.74,195c-.08.39-.17.79-.23,1.18-.23,1.27-.45,2.53-.62,3.82v0c0,.31-.06.6-.1.9-.13,1-.24,2-.34,3,0,.48-.09,1-.13,1.44-.06.87-.13,1.74-.17,2.62l-.08,1.3C0,210.45,0,211.69,0,212.95c0,2.94.14,5.88.42,8.82s.74,6.12,1.34,9.15c.41,2.11.89,4.21,1.45,6.29q.94,3.51,2.15,7a92.62,92.62,0,0,0,10.4,20.75c.31.45.61.9.93,1.35l.62.9a92.9,92.9,0,0,0,8.91,10.69c1,1.07,2.13,2.13,3.22,3.16.14.14.29.27.45.41.47.45.94.88,1.43,1.31s.92.8,1.37,1.18.73.62,1.1.93c.61.51,1.22,1,1.86,1.5l.24.2h0a93.55,93.55,0,0,0,86.27,15.32l.22-.08c1.41-.46,2.81-1,4.19-1.48l1-.38c1.12-.43,2.23-.88,3.32-1.36l1.54-.7c.87-.39,1.73-.8,2.58-1.23.67-.32,1.34-.66,2-1s1.34-.71,2-1.08,1.57-.88,2.34-1.34c.5-.31,1-.61,1.5-.93.87-.53,1.74-1.1,2.6-1.67.36-.23.69-.47,1-.71,1-.66,1.94-1.34,2.88-2a3.18,3.18,0,0,1,.33-.25,97.19,97.19,0,0,0,8.76-7.51c.43-.43.89-.85,1.32-1.29s1.08-1.13,1.62-1.71,1.23-1.3,1.83-2l1.26-1.46q1.05-1.22,2.06-2.48c.18-.23.38-.46.56-.69s.32-.43.48-.64c.48-.64,1-1.29,1.43-1.93A105.41,105.41,0,0,1,155.14,230.9Z" transform="translate(0 0)"/><path class="cls-1" d="M353.23,212.94H324a65.53,65.53,0,0,0-1.26-12.73h29.59A93.39,93.39,0,0,1,353.23,212.94Z" transform="translate(0 0)"/><path class="cls-1" d="M353.23,297.48V425.87H324V263.38c1.2,2.24,2.5,4.44,3.87,6.6,1.52,2.37,3.11,4.65,4.67,6.74s3,3.9,4.62,5.72c2.29,2.65,4.74,5.21,7.27,7.61A107.37,107.37,0,0,0,353.23,297.48Z" transform="translate(0 0)"/><path class="cls-1" d="M195.54,0V128.41a106.73,106.73,0,0,0-29.19,34V0Z" transform="translate(0 0)"/><path class="cls-1" d="M195.54,0v128.4a107.06,107.06,0,0,0-29.19,34.06V0Z" transform="translate(0 0)"/><path class="cls-1" d="M29.19,0V128.46A106.67,106.67,0,0,0,0,162.56V0Z" transform="translate(0 0)"/><path class="cls-1" d="M166.34,212.94a93.45,93.45,0,0,0,145,78V251.32a64.25,64.25,0,1,1-51.53-102.63H260a196.49,196.49,0,0,1-3-29.14A93.43,93.43,0,0,0,166.34,212.94Z" transform="translate(0 0)"/><path class="cls-1" d="M416.23,277.16a64.3,64.3,0,0,1-61.69-51.24,65.21,65.21,0,0,1-1.31-13,93.39,93.39,0,0,0-.87-12.73,1.56,1.56,0,0,0,0-.24,93.83,93.83,0,0,0-2.94-13.6l-.33-1.06c-.15-.52-.33-1-.5-1.57a91.6,91.6,0,0,0-9.94-21c-1.3-2.06-2.69-4-4.14-6q-1.95-2.58-4.06-5c-2-2.33-4.16-4.57-6.39-6.68a93.1,93.1,0,0,0-64.26-25.6c-.92,0-1.84,0-2.76.07a196.49,196.49,0,0,0,3,29.14A64.29,64.29,0,0,1,322.73,200c0,.08,0,.17.05.24A65.53,65.53,0,0,1,324,212.94a93.09,93.09,0,0,0,.89,13,90.75,90.75,0,0,0,2.94,13.59l.32,1.06c.17.52.33,1,.51,1.57a92.45,92.45,0,0,0,9.93,21c1.31,2,2.69,4,4.15,6,1.29,1.72,2.65,3.4,4.06,5q3,3.51,6.39,6.7a93.13,93.13,0,0,0,62.84,25.56C415.33,296.66,416.23,286.77,416.23,277.16Z" transform="translate(0 0)"/><path class="cls-1" d="M510.93,212.94a93.44,93.44,0,0,0-164.06-61.19l0,0c.64.9,1.27,1.83,1.87,2.76a105.93,105.93,0,0,1,12.18,25.12c.19.6.38,1.21.57,1.8a64.25,64.25,0,1,1,56,95.73l-1.25,0c0,9.61-.9,19.5-.16,29.19.47,0,.93,0,1.4,0A93.45,93.45,0,0,0,510.93,212.94Z" transform="translate(0 0)"/></svg>